# xmcd
#
# Track frame offsets: 
#        150
#        15323
#        29101
#        46978
#        58788
#        82937
#        99441
#        115062
#        122849
#        142886
#        160595
#        180360
#        209900
#        229608
#
# Disc length: 3238 seconds
#
# Revision: 2
# Processed by: cddbd v1.5.2PL0 Copyright (c) Steve Scherf et al.
# Submitted via: ExactAudioCopy v1.0b3
#
DISCID=b00ca40e
DTITLE=Jimmy Bowskill - Old Soul
DYEAR=2003
DGENRE=Blues
TTITLE0=Jimmy Bowskill - Life's so Peculiar
TTITLE1=Jimmy Bowskill - Be Mine
TTITLE2=Jimmy Bowskill - Work Til My Days are Gone
TTITLE3=Jimmy Bowskill - Honeybee
TTITLE4=Jimmy Bowskill - Kindhearted Woman Blues
TTITLE5=Jimmy Bowskill - Weekend Fish Fry
TTITLE6=Jimmy Bowskill - Schoolhouse
TTITLE7=Jimmy Bowskill - Who's Knockin'
TTITLE8=Jimmy Bowskill - Livin' With the Blues
TTITLE9=Jimmy Bowskill - Deep Blue
TTITLE10=Jimmy Bowskill - Blues Don't Like Nobody
TTITLE11=Jimmy Bowskill - Ramblin On My Mind
TTITLE12=Jimmy Bowskill - Hotspell
TTITLE13=Jimmy Bowskill - Stones In my Passway
EXTD=
EXTT0=
EXTT1=
EXTT2=
EXTT3=
EXTT4=
EXTT5=
EXTT6=
EXTT7=
EXTT8=
EXTT9=
EXTT10=
EXTT11=
EXTT12=
EXTT13=
PLAYORDER=
